<?xml version="1.0" encoding="UTF-8"?>
<svg width="93px" height="60px" viewBox="0 0 93 60" version="1.1" xmlns="http://www.w3.org/2000/svg"
     xmlns:xlink="http://www.w3.org/1999/xlink">
    <g fill="#FFF">
        <path d="M0.121,28.862 C0.374,13.725 14.29,0.469 29.427,0.974 C36.68,0.637 43.498,3.793 49.053,8.226 C46.682,10.92 44.227,13.515 41.604,15.942 C34.926,11.327 25.429,10.008 18.751,15.339 C9.198,21.946 8.763,37.546 17.952,44.658 C26.888,52.767 43.778,48.741 46.247,36.325 C40.65,36.241 35.038,36.325 29.441,36.143 C29.427,32.804 29.413,29.465 29.427,26.127 C38.784,26.099 48.141,26.084 57.512,26.155 C58.073,34.011 57.035,42.372 52.209,48.867 C44.9,59.15 30.227,62.152 18.779,57.747 C7.29,53.37 -0.847,41.235 0.121,28.862"></path>
        <path d="M75.763,17.695 L84.11,17.695 C84.124,20.487 84.138,23.293 84.166,26.084 C86.958,26.113 89.764,26.113 92.555,26.141 L92.555,34.488 C89.764,34.516 86.972,34.53 84.166,34.558 C84.138,37.363 84.124,40.155 84.11,42.947 L75.749,42.947 C75.721,40.155 75.721,37.363 75.693,34.572 C72.901,34.544 70.096,34.516 67.304,34.488 L67.304,26.141 C70.096,26.113 72.887,26.099 75.693,26.084 C75.707,23.279 75.735,20.487 75.763,17.695"></path>
    </g>
</svg>