<svg xmlns="http://www.w3.org/2000/svg" xmlns:xlink="http://www.w3.org/1999/xlink" width="24" height="13.782" viewBox="0 0 24 13.782">
  <defs>
    <style>
      .cls-1 {
        fill: #fff;
        fill-rule: evenodd;
        filter: url(#filter);
      }
    </style>
    <filter id="filter" x="373.875" y="326.781" width="24" height="13.782" filterUnits="userSpaceOnUse">
      <feFlood result="flood" flood-color="#fff"/>
      <feComposite result="composite" operator="in" in2="SourceGraphic"/>
      <feBlend result="blend" in2="SourceGraphic"/>
    </filter>
  </defs>
  <path id="social-vk.svg" class="cls-1" d="M385.617,340.512h1.434a1.21,1.21,0,0,0,.655-0.288,1.067,1.067,0,0,0,.2-0.634s-0.028-1.938.865-2.224,2.012,1.873,3.21,2.7a2.263,2.263,0,0,0,1.595.489l3.205-.045s1.676-.1.881-1.431a10.742,10.742,0,0,0-2.383-2.777c-2.009-1.878-1.74-1.574.681-4.823,1.474-1.979,2.063-3.187,1.879-3.7-0.176-.493-1.26-0.363-1.26-0.363l-3.608.023a0.81,0.81,0,0,0-.466.083,1,1,0,0,0-.318.389,21.265,21.265,0,0,1-1.333,2.834c-1.607,2.747-2.25,2.893-2.512,2.722-0.611-.4-0.458-1.6-0.458-2.45,0-2.663.4-3.773-.782-4.06a6.127,6.127,0,0,0-1.684-.169,7.722,7.722,0,0,0-2.994.309c-0.41.2-.727,0.653-0.534,0.679a1.617,1.617,0,0,1,1.065.539,3.539,3.539,0,0,1,.357,1.644s0.212,3.135-.5,3.524c-0.486.267-1.153-.278-2.586-2.771a23.354,23.354,0,0,1-1.288-2.688,1.07,1.07,0,0,0-.3-0.4,1.481,1.481,0,0,0-.554-0.225l-3.429.022a1.168,1.168,0,0,0-.7.24,0.758,0.758,0,0,0-.014.615s2.685,6.325,5.725,9.513A8.2,8.2,0,0,0,385.617,340.512Z" transform="translate(-373.875 -326.781)"/>
</svg>
