<?xml version="1.0" encoding="UTF-8" standalone="no"?><svg width="96px" height="60px" viewBox="0 0 96 60" version="1.1" xmlns="http://www.w3.org/2000/svg" xmlns:xlink="http://www.w3.org/1999/xlink" xmlns:sketch="http://www.bohemiancoding.com/sketch/ns">        <title>AMEX</title>    <desc>Created with Sketch.</desc>    <defs></defs>    <g id="Page-1" stroke="none" stroke-width="1" fill="none" fill-rule="evenodd" sketch:type="MSPage">        <g id="Artboard-1" sketch:type="MSArtboardGroup" transform="translate(-130.000000, -146.000000)">            <g id="AMEX" sketch:type="MSLayerGroup" transform="translate(130.000000, 146.000000)">                <rect id="Pad" fill="#2578BB" sketch:type="MSShapeGroup" x="0" y="0" width="96" height="60" rx="8"></rect>                <path d="M81.305,29.96 L86.794,23.207 L90.987,18.048 L78.097,18.048 L77.177,19.121 L74.735,21.969 L72.465,19.182 L71.542,18.048 L44.839,18.048 L44.02,19.897 L41.624,25.305 L39.211,19.891 L38.39,18.049 L26.595,18.049 L26.595,22.65 L25.444,19.906 L24.644,18 L15.032,18 L14.233,19.91 L6.833,37.615 L5,41.998 L16.282,41.998 L17.035,39.964 L17.916,37.583 L21.831,37.583 L22.712,39.964 L23.464,41.998 L37.039,41.998 L37.039,40.533 L37.671,41.998 L45.611,41.998 L45.789,41.56 L45.789,41.998 L70.854,41.998 L71.771,40.959 L74.505,37.86 L77.192,40.944 L78.11,41.998 L90.91,41.998 L86.81,36.861 L81.305,29.96 L81.305,29.96 Z M53.766,38.85 L48.866,38.85 L48.856,25.809 L43.557,38.85 L39.677,38.85 L33.961,25.608 L33.961,38.85 L25.591,38.85 L23.958,34.435 L15.79,34.435 L14.157,38.85 L9.664,38.85 L17.064,21.145 L22.614,21.145 L29.672,37.967 L29.672,21.194 L36.41,21.194 L41.633,32.913 L46.824,21.194 L53.766,21.194 L53.766,38.85 L53.766,38.85 Z M79.492,38.85 L74.522,33.145 L69.487,38.85 L56.624,38.85 L56.624,21.194 L70.1,21.194 L74.675,26.813 L79.492,21.194 L84.426,21.194 L77.316,29.941 L84.426,38.85 L79.492,38.85 L79.492,38.85 Z M60.912,24.725 L60.912,28.477 L66.833,28.477 L66.833,31.566 L60.912,31.566 L60.912,35.318 L67.242,35.318 L71.9,29.941 L67.853,24.725 L60.912,24.725 L60.912,24.725 Z M17.237,30.72 L22.344,30.72 L19.739,24.77 L17.237,30.72 L17.237,30.72 Z" id="Shape" fill="#FFFFFF" sketch:type="MSShapeGroup"></path>            </g>        </g>    </g></svg>