<?xml version="1.0" encoding="UTF-8" standalone="no"?><svg width="96px" height="60px" viewBox="0 0 96 60" version="1.1" xmlns="http://www.w3.org/2000/svg" xmlns:xlink="http://www.w3.org/1999/xlink" xmlns:sketch="http://www.bohemiancoding.com/sketch/ns">        <title>MC</title>    <desc>Created with Sketch.</desc>    <defs></defs>    <g id="Page-1" stroke="none" stroke-width="1" fill="none" fill-rule="evenodd" sketch:type="MSPage">        <g id="Artboard-1" sketch:type="MSArtboardGroup" transform="translate(-247.000000, -147.000000)">            <g id="MC" sketch:type="MSLayerGroup" transform="translate(247.000000, 147.000000)">                <rect id="Pad" fill="#FFFFFF" sketch:type="MSShapeGroup" x="0" y="0" width="96" height="60" rx="8"></rect>                <g id="Layer_1" transform="translate(9.000000, 7.000000)" sketch:type="MSShapeGroup">                    <path id="Shape" d="M46.2082759,19.9885057 L46.2082759,20.2045977 L46.2082759,19.9885057 L46.2082759,19.9885057 Z"></path>                    <path id="Shape" d="M45.2862069,16.0448276 C45.2862069,15.9908046 45.1862069,15.8827586 45.1862069,15.8287356 C45.1862069,15.8827586 45.2862069,15.9908046 45.2862069,16.0448276 L45.2862069,16.0448276 L45.2862069,16.0448276 Z"></path>                    <path id="Shape" d="M45.9393103,18.5298851 L45.9393103,18.5298851 L45.9393103,18.6298851 L45.9393103,18.5298851 L45.9393103,18.5298851 Z"></path>                    <path id="Shape" d="M46.0931034,27.6057471 C46.0931034,27.7137931 45.9931034,27.7678161 45.9931034,27.8758621 C46.0931034,27.8218391 46.0931034,27.7137931 46.0931034,27.6057471 L46.0931034,27.6057471 Z"></path>                    <path id="Shape" d="M42.9268966,35.7632184 C42.9268966,35.7091954 43.0268966,35.7091954 43.0268966,35.6551724 C43.0268966,35.7091954 42.9268966,35.7091954 42.9268966,35.7632184 L42.9268966,35.7632184 L42.9268966,35.7632184 Z"></path>                    <path id="Shape" d="M44.7558621,14.6402299 C44.8096552,14.7482759 44.8634483,14.9103448 44.9172414,15.0183908 C44.8096552,14.9103448 44.8096552,14.7482759 44.7558621,14.6402299 L44.7558621,14.6402299 Z"></path>                    <path id="Shape" d="M44.2717241,13.5597701 L44.2717241,13.5597701 C44.3255172,13.6678161 44.3793103,13.7758621 44.3793103,13.8298851 C44.3793103,13.7758621 44.3255172,13.6678161 44.2717241,13.5597701 L44.2717241,13.5597701 Z"></path>                    <path id="Shape" d="M45.24,30.8471264 C45.24,30.7931034 45.34,30.7390805 45.34,30.6850575 C45.34,30.6850575 45.34,30.7931034 45.24,30.8471264 L45.24,30.8471264 L45.24,30.8471264 Z"></path>                    <path id="Shape" d="M45.7446743,29.3344828 C45.7446743,29.3344828 45.6446743,29.3344828 45.7446743,29.3344828 C45.6446743,29.3344828 45.7446743,29.3344828 45.7446743,29.3344828 L45.7446743,29.3344828 Z"></path>                    <path id="Shape" d="M44.2717241,33.2781609 L44.2717241,33.2781609 C44.2717241,33.3781609 44.2717241,33.3781609 44.2717241,33.2781609 C44.2717241,33.3781609 44.2717241,33.3781609 44.2717241,33.2781609 L44.2717241,33.2781609 Z"></path>                    <path id="Shape" d="M40.0758621,39.4367816 C40.022069,39.4908046 40.022069,39.5448276 39.9682759,39.5448276 C40.022069,39.4908046 40.0758621,39.4908046 40.0758621,39.4367816 L40.0758621,39.4367816 Z"></path>                    <path d="M37.8703448,23.662069 C37.8703448,23.445977 38.1393103,21.9333333 36.6868966,21.9333333 C35.88,21.9333333 35.342069,22.5275862 35.0731034,23.662069 L37.8703448,23.662069 L37.8703448,23.662069 L37.8703448,23.662069 Z" id="Shape" fill="#E30613"></path>                    <path d="M15.8689655,26.6873563 C15.8151724,27.1735632 16.137931,27.6057471 16.622069,27.6597701 L16.7296552,27.6597701 C17.7517241,27.6597701 18.4510345,26.6873563 18.5048276,25.2827586 C18.3434483,25.2827586 18.1282759,25.2287356 17.9668966,25.2287356 C16.622069,25.2287356 15.8689655,25.7149425 15.8689655,26.6873563 L15.8689655,26.6873563 Z" id="Shape" fill="#E30613"></path>                    <path d="M39.9682759,39.5448276 C40.022069,39.4908046 40.022069,39.4367816 40.0758621,39.4367816 C40.4524138,39.0586207 40.8289655,38.6264368 41.1517241,38.2482759 L36.4717241,38.2482759 C35.8262069,37.491954 35.2344828,36.6275862 34.6965517,35.7632184 L42.9268966,35.7632184 C42.9268966,35.7091954 42.9806897,35.7091954 42.9806897,35.6551724 C43.4648276,34.8988506 43.8413793,34.1425287 44.217931,33.3321839 L44.217931,33.2781609 L33.4055172,33.2781609 C33.0289655,32.4678161 32.7062069,31.6574713 32.4372414,30.7931034 L45.2937931,30.7931034 C45.2937931,30.7390805 45.3475862,30.6850575 45.3475862,30.6310345 C45.5089655,30.1988506 45.6165517,29.7666667 45.7241379,29.3344828 L45.7241379,29.2804598 C45.8317241,28.7942529 45.9393103,28.308046 46.0468966,27.8758621 C46.0468966,27.7678161 46.1006897,27.7137931 46.1006897,27.6057471 C46.1544828,27.3896552 46.1544828,27.2275862 46.2082759,27.0114943 C45.9393103,26.3091954 45.777931,25.4988506 45.777931,24.6344828 C45.777931,23.391954 45.9931034,22.2034483 46.3696552,21.2310345 C46.3158621,20.9068966 46.3158621,20.5287356 46.262069,20.2045977 L46.262069,19.9885057 L46.262069,19.8804598 C45.777931,20.7448276 45.4551724,21.6632184 45.2937931,22.6356322 C43.8951724,22.4735632 43.68,23.608046 42.7655172,29.4965517 L40.2372414,29.4965517 L40.3448276,28.8482759 C40.7751724,25.8770115 41.3668966,22.8517241 41.6358621,19.8804598 L41.6358621,19.8804598 L43.9489655,19.8804598 C43.9489655,20.3666667 43.8951724,20.8528736 43.7875862,21.3390805 C44.5406897,20.2045977 45.1324138,19.6103448 46.2082759,19.8264368 C46.1544828,19.3942529 46.0468966,18.962069 45.9931034,18.4758621 L45.9931034,18.4218391 L31.737931,18.4218391 C31.8993103,17.6114943 32.1144828,16.7471264 32.3834483,15.9367816 L45.24,15.9367816 C45.24,15.8827586 45.1862069,15.7747126 45.1862069,15.7206897 C45.0786207,15.4505747 44.9710345,15.1804598 44.8634483,14.9103448 C44.8096552,14.8022989 44.7558621,14.6402299 44.702069,14.5321839 C44.5944828,14.262069 44.4868966,14.045977 44.3793103,13.7758621 C44.3255172,13.6678161 44.2717241,13.5597701 44.2717241,13.5057471 L33.4055172,13.5057471 C33.782069,12.6413793 34.2662069,11.8310345 34.7503448,11.0206897 L42.9806897,11.0206897 C42.4427586,10.1563218 41.8510345,9.34597701 41.2055172,8.53563218 L36.5255172,8.53563218 C37.2248276,7.67126437 38.0317241,6.86091954 38.8386207,6.05057471 L38.8386207,6.05057471 C34.7503448,2.32298851 29.2634483,1.53542568e-14 23.2924138,1.53542568e-14 C10.4896552,1.53542568e-14 0.107586207,10.4264368 0.107586207,23.283908 C0.107586207,36.1413793 10.4896552,46.5678161 23.2924138,46.5678161 C29.2634483,46.5678161 34.7503448,44.2988506 38.8386207,40.5712644 L38.8386207,40.5712644 C39.2151724,40.3011494 39.5917241,39.9229885 39.9682759,39.5448276 L39.9682759,39.5448276 Z M36.7944828,19.7724138 C38.8386207,19.7724138 40.1834483,21.1229885 40.1834483,23.2298851 C40.1834483,24.0402299 40.0758621,24.7965517 39.8606897,25.6068966 L34.857931,25.6068966 C34.6965517,27.0114943 35.5572414,27.6057471 37.0096552,27.6057471 C37.9241379,27.6057471 38.7848276,27.3896552 39.5917241,27.0114943 L39.2151724,29.3885057 C38.4082759,29.6586207 37.4937931,29.7666667 36.6331034,29.7666667 C33.8358621,29.7666667 32.3834483,28.308046 32.3834483,25.4988506 C32.4372414,22.1494253 34.32,19.7724138 36.7944828,19.7724138 L36.7944828,19.7724138 Z M9.89793103,29.5505747 L11.2965517,20.4747126 L8.06896552,29.5505747 L6.34758621,29.5505747 L6.1862069,20.5287356 L4.68,29.5505747 L2.31310345,29.5505747 L4.30344828,17.7735632 L7.90758621,17.7735632 L8.01517241,25.0666667 L10.4358621,17.7735632 L14.3627586,17.7735632 L12.3724138,29.5505747 L9.89793103,29.5505747 L9.89793103,29.5505747 Z M20.4413793,29.5505747 L18.3434483,29.5505747 L18.3972414,28.5781609 C17.7517241,29.3885057 16.7834483,29.8206897 15.7613793,29.7666667 C14.4165517,29.7666667 13.4482759,28.6862069 13.4482759,27.1735632 C13.4482759,24.8505747 15.062069,23.445977 17.8593103,23.445977 C18.182069,23.445977 18.5586207,23.5 18.8813793,23.5 C18.9351724,23.283908 18.9889655,23.0678161 18.9889655,22.8517241 C18.9889655,22.2034483 18.5586207,21.9873563 17.3751724,21.9873563 C16.4606897,21.9873563 15.5462069,22.1494253 14.6855172,22.4195402 L15.062069,20.2586207 C16.0303448,19.9344828 17.0524138,19.7724138 18.0744828,19.7724138 C20.2262069,19.7724138 21.3558621,20.7448276 21.3558621,22.5816092 C21.3558621,23.2298851 21.2482759,23.8781609 21.1406897,24.4724138 C20.9793103,25.8770115 20.4951724,28.8482759 20.4413793,29.5505747 L20.4413793,29.5505747 L20.4413793,29.5505747 Z M25.7131034,23.8781609 C26.9503448,24.4724138 27.4882759,25.2827586 27.4882759,26.5793103 C27.4882759,28.7942529 26.2510345,29.7666667 23.6151724,29.7666667 C22.7544828,29.7666667 21.84,29.6586207 20.9793103,29.4965517 L21.302069,27.2816092 C22.0013793,27.5517241 22.8082759,27.6597701 23.5613793,27.6597701 C24.5296552,27.6597701 25.0137931,27.3896552 25.0137931,26.7954023 C25.0137931,26.3632184 24.8524138,26.2011494 23.8303448,25.7149425 C22.4855172,25.0666667 21.8937931,24.2022989 21.8937931,23.0137931 C21.8937931,21.2310345 22.862069,19.7724138 25.6593103,19.7724138 C26.4124138,19.7724138 27.1655172,19.8264368 27.8648276,19.9344828 L27.4882759,22.1494253 C26.8965517,22.0413793 26.3048276,21.9873563 25.6593103,21.9873563 C24.8524138,21.9873563 24.422069,22.3114943 24.422069,22.7977011 C24.5296552,23.283908 24.6372414,23.391954 25.7131034,23.8781609 L25.7131034,23.8781609 Z M31.5765517,29.4425287 C30.9848276,29.6586207 30.3931034,29.7666667 29.7475862,29.7666667 C28.4565517,29.7666667 27.7572414,29.0103448 27.7572414,27.6597701 C27.8110345,26.7954023 27.9186207,25.9310345 28.08,25.1206897 C28.2413793,24.2022989 29.1558621,18.583908 29.1558621,18.583908 L31.737931,18.583908 L31.4689655,20.0425287 L32.76,20.0425287 L32.4372414,22.3655172 L31.1462069,22.3655172 C30.8772414,24.2022989 30.4468966,26.4712644 30.4468966,26.7954023 C30.4468966,27.2816092 30.7158621,27.4977011 31.3075862,27.4977011 C31.5227586,27.4977011 31.7917241,27.4977011 32.0068966,27.3896552 L31.5765517,29.4425287 L31.5765517,29.4425287 Z" id="Shape" fill="#E30613"></path>                    <path id="Shape" fill="#F7A600" d="M75.2027586,28.6321839 L75.1489655,28.6321839 L75.1489655,28.7942529 L75.2565517,28.7942529 L75.3641379,28.7942529 L75.417931,28.7402299 C75.417931,28.6862069 75.417931,28.6862069 75.3641379,28.6862069 C75.3103448,28.6321839 75.2565517,28.6321839 75.2027586,28.6321839 L75.2027586,28.6321839 Z"></path>                    <path d="M70.3075862,22.2034483 C69.177931,22.2034483 68.3710345,23.554023 68.3710345,25.4448276 C68.3710345,26.6873563 68.8013793,27.3356322 69.662069,27.3356322 L69.662069,27.3356322 C70.8455172,27.3356322 71.6524138,25.9850575 71.6524138,24.0942529 C71.6524138,22.9057471 71.1682759,22.2034483 70.3075862,22.2034483 L70.3075862,22.2034483 Z" id="Shape" fill="#F7A600"></path>                    <path d="M55.5144828,26.6873563 C55.4606897,27.1735632 55.7834483,27.6057471 56.2675862,27.6597701 L56.3751724,27.6597701 C57.3972414,27.6597701 58.0965517,26.6873563 58.1503448,25.2827586 C57.9889655,25.2827586 57.7737931,25.2287356 57.6124138,25.2287356 C56.2675862,25.2287356 55.5144828,25.7149425 55.5144828,26.6873563 L55.5144828,26.6873563 Z" id="Shape" fill="#F7A600"></path>                    <path d="M75.2565517,28.254023 C74.9337931,28.254023 74.6648276,28.5241379 74.6648276,28.8482759 C74.6648276,29.1724138 74.9337931,29.3885057 75.2027586,29.4425287 L75.2027586,29.4425287 C75.5255172,29.4425287 75.7944828,29.1724138 75.7944828,28.8482759 C75.7944828,28.4701149 75.5793103,28.254023 75.2565517,28.254023 L75.2565517,28.254023 Z M75.3641379,29.1183908 L75.2565517,28.8482759 L75.1489655,28.8482759 L75.1489655,29.1183908 L75.1489655,29.1183908 L75.1489655,29.1183908 L74.9875862,29.1183908 L74.9875862,28.4701149 L75.2565517,28.4701149 C75.3103448,28.4701149 75.3641379,28.4701149 75.417931,28.5241379 C75.4717241,28.5781609 75.5255172,28.6321839 75.5255172,28.6862069 C75.5255172,28.7402299 75.4717241,28.8482759 75.417931,28.8482759 L75.5255172,29.1183908 L75.3641379,29.1183908 L75.3641379,29.1183908 Z" id="Shape" fill="#F7A600"></path>                    <path d="M69.9310345,6.21264368 C65.6813793,2.32298851 60.1406897,0.162068966 54.3848276,0.162068966 C48.6289655,0.162068966 43.0882759,2.32298851 38.8386207,6.15862069 C41.097931,8.21149425 42.9806897,10.7505747 44.2717241,13.5597701 L44.2717241,13.5597701 C44.3255172,13.6678161 44.3793103,13.7758621 44.3793103,13.8298851 C44.4868966,14.1 44.5944828,14.316092 44.702069,14.5862069 C44.7558621,14.6942529 44.8096552,14.8563218 44.8634483,14.9643678 C44.9710345,15.2344828 45.0786207,15.5045977 45.1862069,15.7747126 C45.1862069,15.8287356 45.24,15.9367816 45.24,15.9908046 L45.24,15.9908046 C45.5089655,16.8011494 45.7241379,17.6114943 45.9393103,18.4758621 L45.9393103,18.4758621 L45.9393103,18.5298851 C46.0468966,18.962069 46.1006897,19.3942529 46.2082759,19.8804598 L46.2082759,19.8804598 L46.2082759,19.8804598 L46.2082759,19.9885057 L46.2082759,20.2045977 C46.262069,20.5287356 46.3158621,20.9068966 46.3158621,21.2310345 C47.2303448,18.908046 49.0593103,17.4494253 51.3724138,17.4494253 C52.3406897,17.5034483 53.2551724,17.7195402 54.1158621,18.0436782 L53.6855172,20.5827586 C52.9862069,20.2045977 52.2331034,19.9885057 51.4262069,19.9344828 C49.5434483,19.9344828 48.2524138,21.7712644 48.2524138,24.3643678 C48.2524138,26.1471264 49.1668966,27.2275862 50.6193103,27.2275862 C51.3724138,27.1735632 52.1255172,27.0114943 52.7710345,26.6333333 L52.3406897,29.3344828 C51.6413793,29.5505747 50.8882759,29.6586207 50.1351724,29.6586207 C48.2524138,29.6586207 46.8,28.6862069 46.1544828,27.0114943 C46.1006897,27.1735632 46.1006897,27.3896552 46.0468966,27.5517241 C46.0468966,27.6597701 45.9931034,27.7137931 45.9931034,27.8218391 C45.8855172,28.308046 45.777931,28.7942529 45.6703448,29.2264368 L45.6703448,29.2804598 C45.5627586,29.7126437 45.4551724,30.1448276 45.2937931,30.5770115 C45.2937931,30.6310345 45.24,30.6850575 45.24,30.7390805 L45.24,30.7390805 C44.9710345,31.6034483 44.6482759,32.4137931 44.2717241,33.2241379 L44.2717241,33.2241379 L44.2717241,33.2781609 C43.8951724,34.0885057 43.4648276,34.8448276 43.0344828,35.6011494 C43.0344828,35.6551724 42.9806897,35.6551724 42.9806897,35.7091954 L42.9806897,35.7091954 C42.1737931,37.0057471 41.2055172,38.2482759 40.1296552,39.3827586 C40.0758621,39.4367816 40.0758621,39.4908046 40.022069,39.4908046 C39.6455172,39.8689655 39.2689655,40.2471264 38.8924138,40.6252874 C48.36,49.2689655 63.0455172,48.5126437 71.5986207,39.0045977 C80.1517241,29.5505747 79.4524138,14.8022989 69.9310345,6.21264368 L69.9310345,6.21264368 Z M60.0331034,29.5505747 L60.0331034,29.5505747 L57.9351724,29.5505747 L57.9889655,28.5781609 C57.3434483,29.3885057 56.3751724,29.8206897 55.3531034,29.7666667 C54.0082759,29.7666667 53.04,28.6862069 53.04,27.1735632 C53.04,24.8505747 54.6537931,23.445977 57.4510345,23.445977 C57.7737931,23.445977 58.1503448,23.5 58.4731034,23.5 C58.5268966,23.283908 58.5806897,23.0678161 58.5806897,22.8517241 C58.5806897,22.2034483 58.1503448,21.9873563 56.9668966,21.9873563 C56.0524138,21.9873563 55.137931,22.1494253 54.2772414,22.4195402 L54.6537931,20.2586207 C55.622069,19.9344828 56.6441379,19.7724138 57.6662069,19.7724138 C59.817931,19.7724138 60.9475862,20.7448276 60.9475862,22.5816092 C60.9475862,23.2298851 60.84,23.8781609 60.7324138,24.4724138 C60.5710345,25.8770115 60.1406897,28.8482759 60.0331034,29.5505747 L60.0331034,29.5505747 Z M63.422069,29.5505747 L60.8937931,29.5505747 L61.0013793,28.9022989 C61.4317241,25.9310345 62.0234483,22.9057471 62.2924138,19.9344828 L62.2924138,19.9344828 L64.6055172,19.9344828 C64.6055172,20.4206897 64.5517241,20.9068966 64.4441379,21.3931034 C65.1972414,20.2586207 65.7889655,19.6643678 66.8648276,19.8804598 C66.3806897,20.7448276 66.057931,21.7172414 65.8965517,22.6896552 C64.5517241,22.5275862 64.2827586,23.716092 63.422069,29.5505747 L63.422069,29.5505747 Z M71.0068966,29.5505747 L71.1144828,28.6321839 C70.5227586,29.3344828 69.7158621,29.7126437 68.8013793,29.7126437 C66.9724138,29.7126437 65.7351724,28.145977 65.7351724,25.7149425 C65.7351724,22.5275862 67.617931,19.8264368 69.8234483,19.8264368 C70.7917241,19.8264368 71.7062069,20.3126437 72.2441379,21.1229885 L72.782069,17.7195402 L75.2565517,17.7195402 L73.3737931,29.4965517 L71.0068966,29.4965517 L71.0068966,29.5505747 Z M75.2565517,29.5505747 C74.8262069,29.5505747 74.5034483,29.2264368 74.5034483,28.7942529 C74.5034483,28.362069 74.8262069,28.037931 75.2565517,28.037931 C75.6868966,28.037931 76.0096552,28.362069 76.0096552,28.7942529 C76.0096552,29.2264368 75.6331034,29.5505747 75.2565517,29.5505747 L75.2565517,29.5505747 Z" id="Shape" fill="#F7A600"></path>                    <path d="M36.4717241,38.1942529 L41.1517241,38.1942529 C40.8289655,38.6264368 40.4524138,39.0045977 40.0758621,39.3827586 C41.1517241,38.2482759 42.0662069,37.0057471 42.9268966,35.7091954 L34.6965517,35.7091954 C35.2344828,36.6275862 35.8262069,37.437931 36.4717241,38.1942529 L36.4717241,38.1942529 Z" id="Shape" fill="#F7A600"></path>                    <path id="Shape" fill="#F7A600" d="M46.3696552,21.2310345 C46.3158621,20.9068966 46.3158621,20.5287356 46.262069,20.2045977 C46.262069,20.5287356 46.3158621,20.9068966 46.3696552,21.2310345 C46.3158621,21.2310345 46.3158621,21.2310345 46.3696552,21.2310345 L46.3696552,21.2310345 Z"></path>                    <path d="M33.4055172,33.2781609 L44.2717241,33.2781609 C44.6482759,32.4678161 44.9710345,31.6574713 45.24,30.7931034 L32.3834483,30.7931034 C32.7062069,31.6574713 33.0289655,32.4678161 33.4055172,33.2781609 L33.4055172,33.2781609 Z" id="Shape" fill="#F7A600"></path>                    <path d="M44.2717241,33.3321839 C43.8951724,34.1425287 43.4648276,34.8988506 43.0344828,35.6551724 C43.4648276,34.8988506 43.8951724,34.1425287 44.2717241,33.3321839 L44.2717241,33.3321839 Z" id="Shape" fill="#F7A600"></path>                    <path id="Shape" fill="#F7A600" d="M46.0468966,27.6057471 C46.1006897,27.4436782 46.1006897,27.2275862 46.1544828,27.0655172 L46.1544828,27.0655172 C46.1544828,27.2275862 46.1006897,27.4436782 46.0468966,27.6057471 L46.0468966,27.6057471 Z"></path>                    <path id="Shape" fill="#F7A600" d="M46.2082759,19.9885057 L46.2082759,19.8804598 L46.2082759,19.8804598 L46.2082759,19.9885057 L46.2082759,19.9885057 Z"></path>                    <path id="Shape" fill="#F7A600" d="M44.3793103,13.883908 C44.4868966,14.154023 44.5944828,14.3701149 44.702069,14.6402299 C44.6482759,14.3701149 44.5406897,14.1 44.3793103,13.883908 L44.3793103,13.883908 Z"></path>                    <path d="M36.4717241,8.64367816 L41.1517241,8.64367816 C41.7972414,9.4 42.3889655,10.2643678 42.9268966,11.1287356 L34.6965517,11.1287356 C34.2124138,11.9390805 33.782069,12.7494253 33.3517241,13.6137931 L44.217931,13.6137931 C42.9268966,10.8045977 41.0441379,8.26551724 38.7848276,6.21264368 L38.7848276,6.21264368 C37.977931,6.96896552 37.2248276,7.77931034 36.4717241,8.64367816 L36.4717241,8.64367816 Z" id="Shape" fill="#F7A600"></path>                    <path id="Shape" fill="#F7A600" d="M45.6703448,29.3885057 C45.5627586,29.8206897 45.4551724,30.2528736 45.2937931,30.6850575 C45.4551724,30.1988506 45.5627586,29.8206897 45.6703448,29.3885057 L45.6703448,29.3885057 Z"></path>                    <path id="Shape" fill="#F7A600" d="M46.0468966,27.8758621 C45.9393103,28.362069 45.8317241,28.8482759 45.7241379,29.2804598 C45.8317241,28.8482759 45.9393103,28.362069 46.0468966,27.8758621 L46.0468966,27.8758621 Z"></path>                    <path d="M39.9682759,39.5448276 C39.5917241,39.9229885 39.2151724,40.3011494 38.8386207,40.6793103 L38.8386207,40.6793103 C39.2151724,40.3011494 39.5917241,39.9229885 39.9682759,39.5448276 L39.9682759,39.5448276 Z" id="Shape" fill="#F7A600"></path>                    <path d="M31.737931,18.5298851 L45.9393103,18.5298851 C45.777931,17.6655172 45.5089655,16.8551724 45.24,16.0448276 L32.3834483,16.0448276 C32.1144828,16.8551724 31.8993103,17.6655172 31.737931,18.5298851 L31.737931,18.5298851 Z" id="Shape" fill="#F7A600"></path>                    <path id="Shape" fill="#F7A600" d="M46.2082759,19.8804598 C46.1544828,19.4482759 46.0468966,19.016092 45.9393103,18.5298851 C46.0468966,19.016092 46.1006897,19.4482759 46.2082759,19.8804598 C46.1544828,19.8804598 46.2082759,19.8804598 46.2082759,19.8804598 L46.2082759,19.8804598 Z"></path>                    <path id="Shape" fill="#F7A600" d="M44.8634483,15.0183908 C44.9710345,15.2885057 45.0786207,15.5586207 45.1862069,15.8287356 C45.0786207,15.5586207 44.9710345,15.2885057 44.8634483,15.0183908 L44.8634483,15.0183908 Z"></path>                    <path d="M10.4358621,17.7735632 L7.96137931,25.0666667 L7.90758621,17.7735632 L4.24965517,17.7735632 L2.31310345,29.5505747 L4.68,29.5505747 L6.1862069,20.5287356 L6.40137931,29.5505747 L8.12275862,29.5505747 L11.2965517,20.4747126 L9.89793103,29.5505747 L12.3724138,29.5505747 L14.3627586,17.7735632 L10.4358621,17.7735632 Z" id="Shape" fill="#FFFFFF"></path>                    <path d="M21.3558621,22.5816092 C21.3558621,20.7448276 20.2262069,19.7724138 18.0744828,19.7724138 C17.0524138,19.7724138 16.0303448,19.9344828 15.062069,20.2586207 L14.6855172,22.4195402 C15.5462069,22.1494253 16.4606897,21.9873563 17.3751724,21.9873563 C18.5586207,21.9873563 18.9889655,22.2034483 18.9889655,22.8517241 C18.9889655,23.0678161 18.9351724,23.283908 18.8813793,23.5 C18.5586207,23.445977 18.182069,23.445977 17.8593103,23.445977 C15.062069,23.445977 13.4482759,24.7965517 13.4482759,27.1735632 C13.4482759,28.6862069 14.3627586,29.7666667 15.7613793,29.7666667 C16.7834483,29.8206897 17.7517241,29.3885057 18.3972414,28.5781609 L18.3434483,29.5505747 L20.4413793,29.5505747 L20.4413793,29.5505747 C20.4951724,28.8482759 20.9793103,25.8770115 21.1944828,24.4724138 C21.2482759,23.8241379 21.3558621,23.2298851 21.3558621,22.5816092 L21.3558621,22.5816092 Z M16.7834483,27.6597701 L16.6758621,27.6597701 C16.1917241,27.6057471 15.8689655,27.1735632 15.9227586,26.6873563 C15.9227586,25.7149425 16.6758621,25.2287356 18.0744828,25.2287356 C18.2358621,25.2287356 18.4510345,25.2287356 18.6124138,25.2827586 C18.5586207,26.6873563 17.8055172,27.7137931 16.7834483,27.6597701 L16.7834483,27.6597701 Z" id="Shape" fill="#FFFFFF"></path>                    <path id="Shape" fill="#FFFFFF" d="M46.3696552,21.3931034 C46.3696552,21.5551724 46.3696552,21.6632184 46.4696552,21.8252874 C46.3696552,21.6632184 46.3696552,21.5551724 46.3696552,21.3931034 L46.3696552,21.3931034 Z"></path>                    <path id="Shape" fill="#FFFFFF" d="M46.362069,26.0931034 C46.362069,26.2011494 46.262069,26.3091954 46.262069,26.4712644 C46.262069,26.3632184 46.262069,26.2551724 46.362069,26.0931034 L46.362069,26.0931034 Z"></path>                    <path id="Shape" fill="#FFFFFF" d="M46.4234483,24.6885057 L46.4234483,24.8505747 L46.4234483,24.6885057 L46.4234483,24.6885057 Z"></path>                    <path id="Shape" fill="#FFFFFF" d="M46.4234483,22.8517241 L46.4234483,23.2298851 L46.4234483,22.8517241 L46.4234483,22.8517241 Z"></path>                    <path d="M46.3158621,26.0931034 C46.3696552,25.6609195 46.4234483,25.2287356 46.4234483,24.8505747 L46.4234483,24.6885057 C46.4234483,24.2022989 46.4772414,23.7701149 46.4772414,23.283908 L46.4772414,22.9057471 C46.4772414,22.5816092 46.4772414,22.2034483 46.4234483,21.8793103 C46.4234483,21.7172414 46.4234483,21.6091954 46.3696552,21.4471264 L46.3696552,21.2850575 C45.9931034,22.2574713 45.777931,23.445977 45.777931,24.6885057 C45.777931,25.6068966 45.9393103,26.4172414 46.2082759,27.0655172 C46.262069,26.8494253 46.262069,26.6873563 46.3158621,26.4712644 C46.262069,26.3632184 46.262069,26.2551724 46.3158621,26.0931034 L46.3158621,26.0931034 Z" id="Shape" fill="#FFFFFF"></path>                    <path d="M46.3696552,21.8252874 C46.3696552,22.1494253 46.4234483,22.5275862 46.4234483,22.8517241 L46.4234483,23.2298851 L46.4234483,23.391954 C46.4234483,23.8241379 46.4234483,24.2022989 46.3696552,24.6344828 L46.3696552,24.7965517 C46.3696552,25.2287356 46.3158621,25.6609195 46.262069,26.0390805 C46.262069,26.1471264 46.2082759,26.2551724 46.2082759,26.4172414 C46.2082759,26.6333333 46.1544828,26.7954023 46.1544828,27.0114943 C46.8,28.6862069 48.1986207,29.6586207 50.1351724,29.6586207 C50.8882759,29.6586207 51.6413793,29.5505747 52.3406897,29.3344828 L52.7710345,26.6333333 C52.1255172,27.0114943 51.3724138,27.2275862 50.6193103,27.2275862 C49.1668966,27.2275862 48.2524138,26.1471264 48.2524138,24.3643678 C48.2524138,21.7712644 49.5972414,19.9344828 51.4262069,19.9344828 C52.2331034,19.9344828 52.9862069,20.1505747 53.6855172,20.5827586 L54.1158621,18.0436782 C53.2551724,17.7195402 52.2868966,17.5034483 51.3724138,17.4494253 C49.0593103,17.4494253 47.1765517,18.908046 46.3158621,21.2310345 L46.3158621,21.3931034 C46.3696552,21.5551724 46.3696552,21.6632184 46.3696552,21.8252874 L46.3696552,21.8252874 Z" id="Shape" fill="#FFFFFF"></path>                    <path id="Shape" fill="#FFFFFF" d="M46.4234483,24.8505747 C46.4234483,25.2827586 46.3696552,25.7149425 46.3158621,26.0931034 C46.3158621,25.7149425 46.3696552,25.2827586 46.4234483,24.8505747 L46.4234483,24.8505747 Z"></path>                    <path id="Shape" fill="#FFFFFF" d="M46.1544828,27.0655172 L46.1544828,27.0655172 C46.2082759,26.9034483 46.2082759,26.6873563 46.262069,26.4712644 C46.2082759,26.6873563 46.2082759,26.8494253 46.1544828,27.0655172 L46.1544828,27.0655172 Z"></path>                    <path id="Shape" fill="#FFFFFF" d="M46.3696552,21.3931034 L46.3696552,21.2310345 L46.3696552,21.2310345 L46.3696552,21.3931034 L46.3696552,21.3931034 Z"></path>                    <path id="Shape" fill="#FFFFFF" d="M46.5234483,23.445977 L46.5234483,23.283908 C46.5234483,23.7701149 46.5234483,24.2022989 46.4234483,24.6885057 C46.4234483,24.2563218 46.5234483,23.8781609 46.5234483,23.445977 L46.5234483,23.445977 Z"></path>                    <path id="Shape" fill="#FFFFFF" d="M46.3696552,21.8252874 C46.3696552,22.1494253 46.4696552,22.5275862 46.4696552,22.8517241 C46.4696552,22.5275862 46.4696552,22.1494253 46.3696552,21.8252874 L46.3696552,21.8252874 Z"></path>                    <path d="M57.6662069,19.7724138 C56.6441379,19.7724138 55.622069,19.9344828 54.6537931,20.2586207 L54.2772414,22.4195402 C55.137931,22.1494253 56.0524138,21.9873563 56.9668966,21.9873563 C58.1503448,21.9873563 58.5806897,22.2034483 58.5806897,22.8517241 C58.5806897,23.0678161 58.5268966,23.283908 58.4731034,23.5 C58.1503448,23.445977 57.7737931,23.445977 57.4510345,23.445977 C54.6537931,23.445977 53.04,24.7965517 53.04,27.1735632 C53.04,28.6862069 53.9544828,29.7666667 55.3531034,29.7666667 C56.3751724,29.8206897 57.3434483,29.3885057 57.9889655,28.5781609 L57.9351724,29.5505747 L60.0331034,29.5505747 L60.0331034,29.5505747 C60.0868966,28.8482759 60.5710345,25.8770115 60.7324138,24.4724138 C60.84,23.8241379 60.8937931,23.2298851 60.9475862,22.5816092 C61.0013793,20.7448276 59.817931,19.7724138 57.6662069,19.7724138 L57.6662069,19.7724138 Z M56.4289655,27.6597701 L56.3213793,27.6597701 C55.8372414,27.6057471 55.5144828,27.1735632 55.5682759,26.6873563 C55.5682759,25.7149425 56.3213793,25.2287356 57.72,25.2287356 C57.8813793,25.2287356 58.0965517,25.2287356 58.257931,25.2827586 C58.2041379,26.6873563 57.4510345,27.7137931 56.4289655,27.6597701 L56.4289655,27.6597701 Z" id="Shape" fill="#FFFFFF"></path>                    <path d="M30.3931034,26.6873563 C30.3931034,26.3632184 30.8234483,24.0942529 31.0924138,22.2574713 L32.3834483,22.2574713 L32.7062069,19.9344828 L31.4151724,19.9344828 L31.6841379,18.4758621 L29.1558621,18.4758621 C29.1558621,18.4758621 28.2413793,24.1482759 28.08,25.0126437 C27.9186207,25.8770115 27.8110345,26.6873563 27.7572414,27.5517241 C27.7572414,28.9022989 28.4565517,29.6586207 29.7475862,29.6586207 C30.3393103,29.6586207 30.9848276,29.5505747 31.5765517,29.3344828 L31.9531034,27.2275862 C31.737931,27.2816092 31.5227586,27.3356322 31.2537931,27.3356322 C30.662069,27.3896552 30.3931034,27.1735632 30.3931034,26.6873563 L30.3931034,26.6873563 Z" id="Shape" fill="#FFFFFF"></path>                    <path d="M36.6868966,29.7126437 C37.5475862,29.7126437 38.4082759,29.6045977 39.2689655,29.3344828 L39.6455172,26.9574713 C38.8386207,27.3356322 37.9241379,27.5517241 37.0634483,27.5517241 C35.6110345,27.5517241 34.7503448,26.9574713 34.9117241,25.5528736 L39.9144828,25.5528736 C40.1296552,24.7965517 40.1834483,23.9862069 40.2372414,23.1758621 C40.2372414,21.0689655 38.8924138,19.7183908 36.8482759,19.7183908 C34.32,19.7183908 32.4910345,22.1494253 32.4910345,25.3908046 C32.4372414,28.254023 33.8896552,29.7126437 36.6868966,29.7126437 L36.6868966,29.7126437 Z M36.6868966,21.9333333 C38.0855172,21.9333333 37.8703448,23.445977 37.8703448,23.662069 L37.8703448,23.662069 L35.1268966,23.662069 C35.342069,22.5275862 35.88,21.9333333 36.6868966,21.9333333 L36.6868966,21.9333333 Z" id="Shape" fill="#FFFFFF"></path>                    <path d="M25.7668966,22.0413793 C26.3586207,22.0413793 26.9503448,22.0954023 27.5958621,22.2034483 L27.9724138,19.9885057 C27.2193103,19.8804598 26.52,19.8264368 25.7668966,19.8264368 C22.9696552,19.8264368 22.0013793,21.2850575 22.0013793,23.0678161 C22.0013793,24.2563218 22.5931034,25.1206897 23.937931,25.7689655 C24.96,26.2551724 25.1213793,26.4172414 25.1213793,26.8494253 C25.1213793,27.4436782 24.6910345,27.7137931 23.6689655,27.7137931 C22.9158621,27.7137931 22.1627586,27.6057471 21.4096552,27.3356322 L21.0868966,29.5505747 C21.9475862,29.7666667 22.8082759,29.8206897 23.7227586,29.8206897 C26.3586207,29.8206897 27.5958621,28.7942529 27.5958621,26.6333333 C27.5958621,25.3367816 27.057931,24.5264368 25.8206897,23.9321839 C24.7448276,23.445977 24.6372414,23.337931 24.6372414,22.9057471 C24.5296552,22.3655172 24.96,22.0413793 25.7668966,22.0413793 L25.7668966,22.0413793 Z" id="Shape" fill="#FFFFFF"></path>                    <path d="M72.782069,17.7735632 L72.2441379,21.1770115 C71.7062069,20.3666667 70.7917241,19.8804598 69.8234483,19.8804598 C67.617931,19.8804598 65.7351724,22.5816092 65.7351724,25.7689655 C65.7351724,28.145977 66.9186207,29.7666667 68.8013793,29.7666667 C69.7158621,29.7666667 70.5227586,29.3885057 71.1144828,28.6862069 L71.0068966,29.6045977 L73.3737931,29.6045977 L75.2565517,17.8275862 L72.782069,17.8275862 L72.782069,17.7735632 Z M69.662069,27.3356322 L69.662069,27.3356322 C68.8013793,27.3356322 68.3710345,26.6873563 68.3710345,25.4448276 C68.3710345,23.554023 69.177931,22.2034483 70.3075862,22.2034483 C71.1682759,22.2034483 71.6524138,22.8517241 71.6524138,24.0942529 C71.6524138,25.9850575 70.8455172,27.3356322 69.662069,27.3356322 L69.662069,27.3356322 Z" id="Shape" fill="#FFFFFF"></path>                    <path d="M66.9186207,19.8804598 C65.8427586,19.6643678 65.3048276,20.2586207 64.497931,21.3931034 C64.6055172,20.9068966 64.6593103,20.4206897 64.6593103,19.9344828 L62.3462069,19.9344828 L62.3462069,19.9344828 C62.0234483,22.9057471 61.4855172,25.9310345 61.0551724,28.9022989 L60.9475862,29.5505747 L63.4758621,29.5505747 C64.3903448,23.662069 64.6055172,22.5275862 66.0041379,22.6896552 C66.1117241,21.7172414 66.4344828,20.7988506 66.9186207,19.8804598 L66.9186207,19.8804598 Z" id="Shape" fill="#FFFFFF"></path>                    <path d="M43.7875862,21.3931034 C43.8951724,20.9068966 43.9489655,20.4206897 43.9489655,19.9344828 L41.6358621,19.9344828 L41.6358621,19.9344828 C41.3131034,22.9057471 40.7751724,25.9310345 40.3448276,28.9022989 L40.2372414,29.5505747 L42.7655172,29.5505747 C43.68,23.662069 43.8951724,22.5275862 45.2937931,22.6896552 C45.4551724,21.7172414 45.777931,20.7988506 46.262069,19.9344828 L46.262069,19.9344828 C45.1324138,19.6643678 44.5406897,20.2586207 43.7875862,21.3931034 L43.7875862,21.3931034 Z" id="Shape" fill="#FFFFFF"></path>                    <path id="Shape" fill="#FFFFFF" d="M46.1544828,19.9689655 L46.1544828,19.9689655 C46.2544828,19.8689655 46.2544828,19.8689655 46.1544828,19.9689655 C46.2544828,19.8689655 46.1544828,19.8689655 46.1544828,19.9689655 C46.1544828,19.8689655 46.1544828,19.9689655 46.1544828,19.9689655 L46.1544828,19.9689655 Z"></path>                    <path d="M75.2565517,28.037931 C74.8262069,28.037931 74.5034483,28.362069 74.5034483,28.7942529 C74.5034483,29.2264368 74.8262069,29.5505747 75.2565517,29.5505747 C75.6868966,29.5505747 76.0096552,29.2264368 76.0096552,28.7942529 C76.0096552,28.416092 75.6331034,28.037931 75.2565517,28.037931 L75.2565517,28.037931 Z M75.2565517,29.3885057 L75.2565517,29.3885057 C74.9337931,29.3885057 74.6648276,29.1183908 74.6648276,28.7942529 C74.6648276,28.4701149 74.9337931,28.2 75.2565517,28.2 C75.5793103,28.2 75.8482759,28.4701149 75.8482759,28.7942529 C75.7944828,29.1183908 75.5793103,29.3885057 75.2565517,29.3885057 L75.2565517,29.3885057 Z" id="Shape" fill="#FFFFFF"></path>                    <path d="M75.5255172,28.6862069 C75.5255172,28.6321839 75.4717241,28.5781609 75.417931,28.5241379 C75.3641379,28.5241379 75.3103448,28.4701149 75.2565517,28.4701149 L74.9875862,28.4701149 L74.9875862,29.1183908 L75.1489655,29.1183908 L75.1489655,28.8482759 L75.2565517,28.8482759 L75.3641379,29.1183908 L75.5255172,29.1183908 L75.417931,28.8482759 C75.4717241,28.8482759 75.5255172,28.7402299 75.5255172,28.6862069 L75.5255172,28.6862069 Z M75.3103448,28.7402299 L75.2027586,28.7402299 L75.0951724,28.7402299 L75.0951724,28.7402299 L75.0951724,28.7402299 L75.0951724,28.7402299 L75.0951724,28.6321839 L75.1489655,28.6321839 L75.2565517,28.6321839 L75.3103448,28.6862069 C75.3641379,28.7402299 75.3641379,28.7402299 75.3103448,28.7402299 L75.3103448,28.7402299 Z" id="Shape" fill="#FFFFFF"></path>                    <path id="Shape" fill="#FFFFFF" d="M75.1489655,28.8402299 L75.1489655,28.7402299 L75.1489655,28.7402299 L75.1489655,28.8402299 Z"></path>                </g>            </g>        </g>    </g></svg>