<?xml version="1.0" encoding="UTF-8" standalone="no"?><svg width="96px" height="60px" viewBox="0 0 96 60" version="1.1" xmlns="http://www.w3.org/2000/svg" xmlns:xlink="http://www.w3.org/1999/xlink" xmlns:sketch="http://www.bohemiancoding.com/sketch/ns">        <title>Visa</title>    <desc>Created with Sketch.</desc>    <defs></defs>    <g id="Page-1" stroke="none" stroke-width="1" fill="none" fill-rule="evenodd" sketch:type="MSPage">        <g id="Artboard-1" sketch:type="MSArtboardGroup" transform="translate(-367.000000, -147.000000)">            <g id="Visa" sketch:type="MSLayerGroup" transform="translate(367.000000, 147.000000)">                <rect id="Pad" fill="#0E4595" sketch:type="MSShapeGroup" x="0" y="0" width="96" height="60" rx="8"></rect>                <g id="Logo" transform="translate(9.000000, 18.000000)" sketch:type="MSShapeGroup">                    <path d="M28.0222306,23.5109252 L31.9778089,0.686466587 L38.3045287,0.686466587 L34.3462234,23.5109252 L28.0222306,23.5109252 L28.0222306,23.5109252 L28.0222306,23.5109252 Z" id="Shape" fill="#FFFFFF"></path>                    <path d="M57.2032313,1.1787218 C55.9497205,0.716314369 53.9857447,0.220095002 51.5329091,0.220095002 C45.2814806,0.220095002 40.8778303,3.315753 40.8403625,7.75246249 C40.8051476,11.0321041 43.9840993,12.8616798 46.3839345,13.9534557 C48.8464928,15.0721645 49.6744596,15.7857131 49.6627213,16.784681 C49.6470702,18.314613 47.6961369,19.0135874 45.8776452,19.0135874 C43.3453684,19.0135874 42.0000853,18.6676563 39.9224018,17.8154788 L39.1071218,17.4526417 L38.2191591,22.5622088 C39.6968837,23.1992724 42.4294234,23.7513397 45.2666595,23.779905 C51.9170725,23.779905 56.2344046,20.7196912 56.2834921,15.9819389 C56.3073245,13.3855317 54.6217485,11.4095153 50.9717224,9.78059592 C48.7602931,8.72473065 47.4059988,8.02015978 47.4203456,6.95100291 C47.4203456,6.00228652 48.5666701,4.98781172 51.0434566,4.98781172 C53.1123659,4.95621505 54.6109587,5.39985102 55.7786256,5.86225845 L56.3456222,6.1256418 L57.2032313,1.1787218" id="path13" fill="#FFFFFF"></path>                    <path d="M73.4835761,0.686466587 L68.5948604,0.686466587 C67.0803794,0.686466587 65.9470975,1.09290942 65.2819257,2.57923567 L55.8859305,23.4963511 L62.5294665,23.4963511 C62.5294665,23.4963511 63.6157951,20.6838972 63.8614699,20.0664212 C64.5874675,20.0664212 71.0412932,20.076215 71.9639967,20.076215 C72.1532327,20.8752262 72.7337462,23.4963511 72.7337462,23.4963511 L78.6043313,23.4963511 L73.4835761,0.686466587 L73.4835761,0.686466587 L73.4835761,0.686466587 Z M65.7271521,15.4246249 C66.2503968,14.1095736 68.2478091,9.04431178 68.2478091,9.04431178 C68.2104599,9.10505668 68.767141,7.72284789 69.0866843,6.8658901 L69.5143625,8.83374501 C69.5143625,8.83374501 70.7257813,14.2820145 70.978926,15.4245083 L65.7271521,15.4245083 L65.7271521,15.4246249 L65.7271521,15.4246249 L65.7271521,15.4246249 Z" id="Path" fill="#FFFFFF"></path>                    <path d="M22.6516507,0.686466587 L16.4576095,16.2510353 L15.7976548,13.0879866 C14.6445719,9.44166037 11.0519332,5.49125985 7.03552906,3.51349455 L12.6992114,23.4745482 L19.3930206,23.4669697 L29.3532855,0.686466587 L22.6516507,0.686466587" id="path16" fill="#FFFFFF"></path>                    <path d="M10.6782039,0.686466587 L0.476414119,0.686466587 L0.395668674,1.16134945 C8.33255464,3.05062075 13.5843285,7.61628198 15.7643369,13.1020944 L13.5460307,2.61339739 C13.1630531,1.16811184 12.0522993,0.736834719 10.6782039,0.686466587" id="path18" fill="#F2AE14"></path>                </g>            </g>        </g>    </g></svg>